<svg aria-hidden="true" style="position: absolute; width: 0; height: 0; overflow: hidden;"
    version="1.1" xmlns="http://www.w3.org/2000/svg" xmlns:xlink="http://www.w3.org/1999/xlink">
    <defs>
<symbol id="icon-Layer-2" viewBox="0 0 45 32">
<path fill="#fff" style="fill: var(--color1, #fff)" d="M42.213 13.424h-39.452c-1.286 0-2.328 1.122-2.328 2.505v0.264c0 1.384 1.042 2.506 2.328 2.506h39.452c1.286 0 2.328-1.122 2.328-2.506v-0.264c0-1.384-1.042-2.505-2.328-2.505z"></path>
<path fill="#fff" style="fill: var(--color1, #fff)" d="M42.213 26.611h-39.452c-1.286 0-2.328 1.122-2.328 2.506v0.264c0 1.384 1.042 2.506 2.328 2.506h39.452c1.286 0 2.328-1.122 2.328-2.506v-0.264c0-1.384-1.042-2.506-2.328-2.506z"></path>
<path fill="#fff" style="fill: var(--color1, #fff)" d="M42.213 0.236h-39.452c-1.286 0-2.328 1.122-2.328 2.506v0.264c0 1.384 1.042 2.506 2.328 2.506h39.452c1.286 0 2.328-1.122 2.328-2.506v-0.264c0-1.384-1.042-2.506-2.328-2.506z"></path>
</symbol>
<symbol id="icon-close" viewBox="0 0 32 32">
            <path stroke-linejoin="round" stroke-linecap="round" stroke-miterlimit="4"
                stroke-width="2.56" d="M23.096 8.244l-15.36 15.36"></path>
            <path stroke-linejoin="round" stroke-linecap="round" stroke-miterlimit="4"
                stroke-width="2.56" d="M7.736 8.244l15.36 15.36"></path>
        </symbol>
        <symbol id="icon-Ellipse-4" viewBox="0 0 32 32">
<path fill="#6823ff" style="fill: var(--color1, #6823ff)" d="M32 16c0 8.837-7.163 16-16 16s-16-7.163-16-16c0-8.837 7.163-16 16-16s16 7.163 16 16z"></path>
</symbol>
<symbol id="icon-infoVectorRight" viewBox="0 0 49 32">
<path d="M42.782 32.856c-2.89 2.401-6.406 3.73-10.031 4.769-5.555 1.592-11.749 5.346-16.673 2.885-4.741-2.37-6.868-8.884-5.636-14.037 1.242-5.196 8.941-6.713 11.723-11.422 1.888-3.196-0.872-7.405 1.222-10.491 2.247-3.311 6.315-5.080 10.203-6.343 4.367-1.419 8.843-1.714 13.324-1.301 5.929 0.547 15.575-1.41 16.816 4.083 1.475 6.529-8.159 11.072-12.062 16.959-1.571 2.37-2.551 4.844-4.003 7.277-1.574 2.639-2.471 5.616-4.886 7.621z"></path>
</symbol>
    </defs>
</svg>