<svg width="453" height="799" viewBox="0 0 453 799" fill="none" xmlns="http://www.w3.org/2000/svg">
<g filter="url(#filter0_f_15_218)">
<path fill-rule="evenodd" clip-rule="evenodd" d="M-185.648 155.305C-126.373 129.275 -61.6247 121.088 3.61113 117.542C103.57 112.109 224.18 76.8537 294.887 129.186C362.98 179.583 368.332 282.616 323.981 354.654C279.263 427.288 143.914 424.636 75.7669 485.093C29.5266 526.115 56.0856 597.211 6.9135 635.94C-45.8402 677.49 -121.836 690.375 -192.485 696.373C-271.849 703.111 -347.829 692.913 -420.62 672.238C-516.929 644.883 -686.79 642.399 -682.103 557.305C-676.532 456.152 -494.925 420.451 -402.666 346.259C-365.524 316.39 -337.757 283.073 -302.314 251.886C-263.879 218.067 -235.165 177.05 -185.648 155.305Z" fill="url(#paint0_linear_15_218)"/>
</g>
<defs>
<filter id="filter0_f_15_218" x="-782.198" y="0.894409" width="1234.79" height="797.543" filterUnits="userSpaceOnUse" color-interpolation-filters="sRGB">
<feFlood flood-opacity="0" result="BackgroundImageFix"/>
<feBlend mode="normal" in="SourceGraphic" in2="BackgroundImageFix" result="shape"/>
<feGaussianBlur stdDeviation="50" result="effect1_foregroundBlur_15_218"/>
</filter>
<linearGradient id="paint0_linear_15_218" x1="-64.7197" y1="188.489" x2="-94.8984" y2="686.288" gradientUnits="userSpaceOnUse">
<stop stop-color="#6823FF"/>
<stop offset="1" stop-color="white" stop-opacity="0"/>
</linearGradient>
</defs>
</svg>
